<svg width="104" height="114" viewBox="0 0 104 114" fill="none" xmlns="http://www.w3.org/2000/svg">
<path d="M13.6629 0.176472C11.2805 0.911238 9.83322 3.071 10.2117 5.31983C10.4789 6.94522 10.3231 7.05655 5.89221 8.10303C4.62307 8.39249 3.53205 8.68194 3.48752 8.74874C3.42072 8.79327 3.64338 9.99561 3.97736 11.3983C4.6676 14.3819 4.64533 15.139 3.8883 15.4507C1.59494 16.3858 0.392598 17.6105 0.0808791 19.3472C-0.475762 22.4421 1.90666 25.0472 5.20197 24.869C6.20393 24.8245 6.62697 24.8913 6.89416 25.1808C7.11682 25.3812 7.60666 26.962 8.02971 28.8546C8.45275 30.6581 8.83127 32.1944 8.89807 32.239C8.9426 32.2835 9.98908 32.0831 11.2582 31.7937L13.5293 31.2593L13.7965 29.7897C14.1528 27.8304 14.7539 26.7394 16.1121 25.4925C18.0047 23.8003 20.7434 23.1991 23.1703 23.9116C24.9516 24.446 26.1094 25.4257 27.5789 27.6522C27.7793 27.9417 28.0688 27.9194 30.0949 27.4296C31.943 26.9843 32.366 26.8062 32.366 26.4722C32.366 26.1159 31.6535 22.8206 31.3418 21.7741C31.275 21.5069 30.8742 21.3733 29.9613 21.2843C27.6235 21.0839 25.575 19.6366 24.4395 17.4101C23.8606 16.2523 23.7938 15.896 23.7938 14.0034C23.7938 12.2444 23.8828 11.7323 24.3059 10.953C24.9961 9.63936 26.0203 8.52608 27.0446 7.94717C27.5121 7.67999 27.9129 7.30147 27.9129 7.12335C27.9129 6.6335 27.0891 3.53858 26.9332 3.36046C26.8442 3.29366 25.4192 3.56085 23.727 3.96163C22.0348 4.34014 20.4762 4.60733 20.2535 4.51827C20.0531 4.42921 19.6078 3.76124 19.2516 3.00421C18.9176 2.24718 18.3164 1.35655 17.9156 1.04483C16.8024 0.109676 15.0656 -0.246574 13.6629 0.176472Z" fill="url(#paint0_linear_32_4)"/>
<path d="M46.8387 18.0112C46.8387 20.8167 46.8164 20.9503 46.2821 21.4624C45.9258 21.8409 45.5028 22.019 45.0129 22.019C43.8774 22.019 42.3633 22.8874 41.6063 23.9784C41.0051 24.8468 40.9383 25.1362 40.9383 26.539C40.9383 29.2999 42.3188 31.0144 44.7903 31.3038C46.7051 31.5265 46.8387 31.8382 46.8387 35.9573L46.8387 39.3862L49.2879 39.3862L51.7149 39.3862L51.9598 38.5179C52.5164 36.4694 54.6094 34.3765 56.7024 33.7976C60.4653 32.7288 64.6067 34.755 65.6977 38.1839L66.0762 39.3862L68.5922 39.3862L71.1082 39.3862L71.1082 35.7347C71.1082 32.1944 71.1305 32.0608 71.5981 31.7269C71.8653 31.5265 72.3774 31.3706 72.7336 31.3706C73.5352 31.3706 74.8488 30.814 75.5168 30.1905C76.5633 29.2331 76.9418 28.0976 76.8528 26.3386C76.786 24.9358 76.6969 24.6241 76.0957 23.8671C75.2051 22.7761 74.3813 22.3085 72.8895 22.019C72.2438 21.8854 71.5758 21.6851 71.3977 21.5515C71.175 21.3511 71.1082 20.5272 71.1082 18.2116L71.1082 15.1167L68.5477 15.1167C66.2321 15.1167 65.9871 15.1612 65.9871 15.5175C65.9871 16.319 64.8071 18.2562 63.7383 19.2136C62.3578 20.4604 60.8215 21.0171 58.7508 20.9948C56.9473 20.9948 55.0324 20.2378 53.7633 19.0577C53.0508 18.3897 51.7371 16.0073 51.7371 15.3839C51.7371 15.1835 51.0914 15.1167 49.2879 15.1167L46.8387 15.1167L46.8387 18.0112Z" fill="url(#paint1_linear_32_4)"/>
<path d="M77.543 21.5737C79.0793 23.1101 79.636 24.6687 79.5246 27.0288C79.3465 30.4355 77.5207 32.6843 73.9582 33.8866C73.5797 34.0202 73.5574 34.5769 73.5574 41.3679C73.5574 47.4464 73.5129 48.7601 73.2457 49.0272C73.0676 49.2054 72.4219 49.4058 71.8207 49.4948C70.2844 49.6952 68.8371 50.6749 68.2137 51.944C67.8129 52.7901 67.7461 53.2577 67.8129 54.5269C67.8797 55.8405 67.991 56.1745 68.5699 56.9093C69.4383 57.978 70.6406 58.6683 71.932 58.8464C72.511 58.9132 73.0899 59.0913 73.2457 59.2249C73.6688 59.5589 73.691 68.1089 73.2903 68.5097C73.0899 68.7101 71.7539 68.7769 68.6367 68.7769C63.6938 68.7769 63.8496 68.8214 63.5602 67.0401C63.3375 65.6597 62.7809 64.68 61.6899 63.7894C60.9328 63.1882 60.6434 63.0991 59.2406 63.0323C57.7934 62.9655 57.5262 63.0323 56.502 63.6335C55.6113 64.1456 55.2106 64.5687 54.7653 65.4815C54.4535 66.105 54.1863 66.9511 54.1863 67.3073C54.1641 68.9327 53.8078 68.9995 45.9258 68.9995C39.7582 68.9995 39.2461 69.0218 39.1348 69.378C38.8008 70.5804 37.7543 72.2503 36.886 73.0073C34.9934 74.6772 31.6535 75.3452 29.6051 74.4769C29.1153 74.2765 28.7145 74.1429 28.6699 74.1651C28.6477 74.2097 29.2266 75.1894 29.9613 76.3472C31.6313 79.019 33.9469 83.7171 34.7039 86.0327C35.9063 89.7288 36.2403 93.7812 35.5946 97.2101C35.3274 98.6796 34.7262 100.06 31.6981 106.139C29.7387 110.08 28.1356 113.375 28.1356 113.419C28.1356 113.486 37.2867 113.531 48.4641 113.531L68.8149 113.531L69.1934 112.128C70.0172 109.189 71.5758 106.74 73.3348 105.626C75.3832 104.335 78.4559 104.046 83.7106 104.602C85.1801 104.78 87.5625 104.869 88.9653 104.803C91.1473 104.714 91.7039 104.625 92.5945 104.157C94.5539 103.155 95.0883 101.775 94.5985 98.9468C94.2422 96.9206 94.4203 96.0522 95.6004 93.7812C96.402 92.3116 96.491 91.9554 96.491 90.5526C96.491 88.7714 96.6914 88.3038 97.8047 87.3464L98.6063 86.6339L98.5395 83.9397C98.4504 80.2437 98.8735 79.5534 101.389 79.1304C103.215 78.8409 103.839 78.3065 103.839 77.1265C103.839 76.837 102.681 74.321 101.256 71.5155C98.2055 65.5038 97.6043 63.8784 97.6043 61.6296C97.6043 60.2046 97.7156 59.7815 98.584 57.8667C99.9645 54.8831 100.365 52.7233 100.209 49.1831C99.8531 41.5905 96.491 34.5991 90.3235 28.6987C87.7852 26.2495 84.9574 24.2456 81.8625 22.7093C80.0367 21.7964 76.875 20.4605 76.5188 20.4605C76.4742 20.4605 76.9195 20.9503 77.543 21.5737Z" fill="url(#paint2_linear_32_4)"/>
<path d="M30.2731 36.3581C28.5809 37.0038 27.2449 38.9632 27.2449 40.8558C27.2449 41.8577 26.5324 42.0581 23.0813 42.0581L19.8973 42.0581L19.8973 45.2421C19.8973 48.6933 19.6969 49.4058 18.6949 49.4058C18.4278 49.4058 17.693 49.5616 17.0918 49.7397C14.4199 50.519 13.084 53.7476 14.3977 56.3081C15.0879 57.6886 16.2012 58.4901 17.8711 58.8241C18.7395 59.0022 19.4074 59.2694 19.5856 59.5366C19.8082 59.8483 19.8973 60.7835 19.8973 63.1437L19.8973 66.3276L23.0813 66.3276C26.8442 66.3276 27.1113 66.439 27.334 68.0421C27.5344 69.4894 28.2692 70.7362 29.427 71.5601C30.2731 72.139 30.5848 72.228 31.8762 72.228C33.1008 72.228 33.5461 72.1167 34.4145 71.6046C35.6391 70.8921 36.5074 69.5784 36.7301 68.1089C36.9973 66.3722 37.0863 66.3276 40.8715 66.3276L44.1668 66.3276L44.1668 63.7671C44.1668 61.4737 44.1223 61.2065 43.7883 61.2065C42.9199 61.2065 41.1164 60.1155 40.1145 59.0022C38.8231 57.555 38.2664 56.0632 38.2887 53.9702C38.3332 50.7862 40.2926 48.1589 43.343 47.1792L44.1668 46.912L44.1668 44.4851L44.1668 42.0581L40.9828 42.0581C37.2199 42.0581 36.9305 41.9468 36.7078 40.3214C36.3738 37.9167 34.7485 36.3136 32.4551 36.1354C31.6313 36.0687 30.8297 36.1577 30.2731 36.3581Z" fill="url(#paint3_linear_32_4)"/>
<path d="M56.6801 36.603C55.2996 37.3155 54.4758 38.5179 54.2086 40.2769C54.0973 40.9003 53.8969 41.546 53.7633 41.6796C53.5852 41.8577 52.3383 41.969 50.0672 42.0136L46.616 42.0804L46.616 45.398C46.616 49.1831 46.5938 49.2722 44.8793 49.4948C42.4524 49.8065 40.827 51.6546 40.827 54.1038C40.8492 56.5308 42.2742 58.312 44.5453 58.7351C46.616 59.1358 46.5047 58.9132 46.5715 62.8542L46.6383 66.3276L49.1543 66.3276L51.6703 66.3276L51.9375 65.3925C52.6946 62.8765 54.7207 61.0952 57.4817 60.5163C58.8176 60.2491 59.9309 60.3604 61.6453 60.9171C63.2707 61.4515 65.141 63.3663 65.6754 65.0585L66.0762 66.3276L68.5922 66.3276L71.1305 66.3276L71.0637 63.8562L70.9969 61.4069L69.8391 61.0062C65.0742 59.403 63.5379 53.0351 67.0113 49.1831C67.8352 48.2702 69.327 47.3796 70.5071 47.0901L71.1082 46.9565L71.1082 44.5073L71.1082 42.0581L67.8797 42.0581C64.718 42.0581 64.6067 42.0358 64.0946 41.5015C63.716 41.1452 63.5379 40.7222 63.5379 40.2323C63.5379 39.8093 63.3153 39.03 63.0481 38.4956C61.9125 36.2468 59.0403 35.4007 56.6801 36.603Z" fill="url(#paint4_linear_32_4)"/>
<defs>
<linearGradient id="paint0_linear_32_4" x1="16.183" y1="-3.81691e-06" x2="16.183" y2="32.2452" gradientUnits="userSpaceOnUse">
<stop stop-color="#FF6A00"/>
<stop offset="1" stop-color="#FF9448"/>
</linearGradient>
<linearGradient id="paint1_linear_32_4" x1="58.9018" y1="15.1167" x2="58.9018" y2="39.3862" gradientUnits="userSpaceOnUse">
<stop stop-color="#FF6A00"/>
<stop offset="1" stop-color="#FF9448"/>
</linearGradient>
<linearGradient id="paint2_linear_32_4" x1="65.9871" y1="20.4604" x2="65.9871" y2="113.531" gradientUnits="userSpaceOnUse">
<stop stop-color="#FF6A00"/>
<stop offset="1" stop-color="#FF9448"/>
</linearGradient>
<linearGradient id="paint3_linear_32_4" x1="29.0269" y1="36.1135" x2="29.0269" y2="72.228" gradientUnits="userSpaceOnUse">
<stop stop-color="#FF6A00"/>
<stop offset="1" stop-color="#FF9448"/>
</linearGradient>
<linearGradient id="paint4_linear_32_4" x1="55.9787" y1="36.0562" x2="55.9787" y2="66.3276" gradientUnits="userSpaceOnUse">
<stop stop-color="#FF6A00"/>
<stop offset="1" stop-color="#FF9448"/>
</linearGradient>
</defs>
</svg>
