<svg width="632" height="130" viewBox="0 0 632 130" fill="none" xmlns="http://www.w3.org/2000/svg">
<path d="M168.91 104.554C162.566 104.554 156.91 103.116 151.941 100.241C146.973 97.3351 143.051 93.1944 140.176 87.8194C137.332 82.4444 135.91 76.0382 135.91 68.6007C135.91 61.1007 137.332 54.6632 140.176 49.2882C143.051 43.9132 146.973 39.7882 151.941 36.9132C156.941 34.0069 162.598 32.5538 168.91 32.5538C172.973 32.5538 176.738 33.1476 180.207 34.3351C183.707 35.5226 186.801 37.2257 189.488 39.4444C192.176 41.6632 194.379 44.3507 196.098 47.5069C197.848 50.6319 198.988 54.1632 199.52 58.1007L184.988 58.1007C184.582 56.0694 183.91 54.2569 182.973 52.6632C182.066 51.0694 180.926 49.7257 179.551 48.6319C178.176 47.5382 176.613 46.7101 174.863 46.1476C173.113 45.5538 171.207 45.2569 169.145 45.2569C165.27 45.2569 161.926 46.2101 159.113 48.1163C156.332 49.9913 154.176 52.6788 152.645 56.1788C151.145 59.6476 150.395 63.7882 150.395 68.6007C150.395 73.4132 151.145 77.5538 152.645 81.0226C154.176 84.4913 156.332 87.1632 159.113 89.0382C161.926 90.9132 165.27 91.8507 169.145 91.8507C171.207 91.8507 173.098 91.5694 174.816 91.0069C176.566 90.4132 178.129 89.5694 179.504 88.4757C180.879 87.3819 182.035 86.0538 182.973 84.4913C183.91 82.8976 184.582 81.1007 184.988 79.1007L199.52 79.1007C199.02 82.8507 197.926 86.2882 196.238 89.4132C194.551 92.5069 192.363 95.1944 189.676 97.4757C186.988 99.7257 183.895 101.476 180.395 102.726C176.895 103.944 173.066 104.554 168.91 104.554ZM230.879 104.601C225.816 104.601 221.395 103.507 217.613 101.319C213.832 99.1319 210.879 96.0851 208.754 92.1788C206.66 88.2726 205.613 83.7101 205.613 78.4913C205.613 73.2413 206.66 68.6632 208.754 64.7569C210.879 60.8194 213.832 57.7569 217.613 55.5694C221.395 53.3819 225.816 52.2882 230.879 52.2882C235.941 52.2882 240.363 53.3819 244.145 55.5694C247.926 57.7569 250.863 60.8194 252.957 64.7569C255.082 68.6632 256.145 73.2413 256.145 78.4913C256.145 83.7101 255.082 88.2726 252.957 92.1788C250.863 96.0851 247.926 99.1319 244.145 101.319C240.363 103.507 235.941 104.601 230.879 104.601ZM230.879 93.3976C233.191 93.3976 235.176 92.7882 236.832 91.5694C238.52 90.3507 239.816 88.6319 240.723 86.4132C241.66 84.1632 242.129 81.5226 242.129 78.4913C242.129 75.3976 241.66 72.7413 240.723 70.5226C239.816 68.2726 238.52 66.5382 236.832 65.3194C235.176 64.1007 233.191 63.4913 230.879 63.4913C228.598 63.4913 226.613 64.1007 224.926 65.3194C223.238 66.5382 221.926 68.2726 220.988 70.5226C220.082 72.7413 219.629 75.3976 219.629 78.4913C219.629 81.5226 220.082 84.1632 220.988 86.4132C221.926 88.6319 223.238 90.3507 224.926 91.5694C226.613 92.7882 228.598 93.3976 230.879 93.3976ZM287.551 123.819C282.957 123.819 279.02 123.179 275.738 121.898C272.488 120.616 269.91 118.819 268.004 116.507C266.129 114.226 264.926 111.569 264.395 108.538L277.426 107.788C277.77 108.944 278.395 109.96 279.301 110.835C280.207 111.741 281.348 112.429 282.723 112.898C284.129 113.398 285.738 113.648 287.551 113.648C290.988 113.648 293.645 112.741 295.52 110.929C297.395 109.148 298.332 106.476 298.332 102.913L298.332 94.8976L298.051 94.8976C297.176 96.7101 296.035 98.2569 294.629 99.5382C293.223 100.788 291.582 101.741 289.707 102.398C287.863 103.023 285.785 103.335 283.473 103.335C279.254 103.335 275.535 102.304 272.316 100.241C269.098 98.1476 266.582 95.2101 264.77 91.4288C262.957 87.6476 262.051 83.2101 262.051 78.1163C262.051 72.9288 262.957 68.4132 264.77 64.5694C266.613 60.6944 269.145 57.6944 272.363 55.5694C275.582 53.4444 279.254 52.3819 283.379 52.3819C285.723 52.3819 287.816 52.7257 289.66 53.4132C291.535 54.1007 293.191 55.0851 294.629 56.3663C296.066 57.6163 297.254 59.1163 298.191 60.8663L298.379 60.8663L298.379 53.3194L312.066 53.3194L312.066 101.882C312.066 107.007 311.02 111.179 308.926 114.398C306.863 117.616 303.988 119.991 300.301 121.523C296.645 123.054 292.395 123.819 287.551 123.819ZM287.223 92.3663C289.566 92.3663 291.598 91.7882 293.316 90.6319C295.066 89.4444 296.41 87.7726 297.348 85.6163C298.285 83.4288 298.754 80.8663 298.754 77.9288C298.754 74.9913 298.285 72.4444 297.348 70.2882C296.41 68.1007 295.066 66.4132 293.316 65.2257C291.598 64.0069 289.566 63.3976 287.223 63.3976C284.941 63.3976 282.957 63.9757 281.27 65.1319C279.613 66.2882 278.332 67.9601 277.426 70.1476C276.551 72.3038 276.113 74.8976 276.113 77.9288C276.113 80.9601 276.551 83.5538 277.426 85.7101C278.332 87.8663 279.613 89.5226 281.27 90.6788C282.957 91.8038 284.941 92.3663 287.223 92.3663ZM336.207 75.3507L336.207 103.476L322.379 103.476L322.379 53.3194L335.879 53.3194L335.926 66.2569L333.91 66.2569C335.441 61.8819 337.645 58.4757 340.52 56.0382C343.395 53.6007 347.066 52.3819 351.535 52.3819C355.098 52.3819 358.191 53.1476 360.816 54.6788C363.441 56.2101 365.473 58.4444 366.91 61.3819C368.348 64.2882 369.066 67.8194 369.066 71.9757L369.066 103.476L355.238 103.476L355.238 74.4601C355.238 71.1788 354.426 68.6632 352.801 66.9132C351.207 65.1319 348.957 64.2413 346.051 64.2413C344.113 64.2413 342.41 64.6476 340.941 65.4601C339.473 66.2726 338.316 67.4913 337.473 69.1163C336.629 70.7413 336.207 72.8194 336.207 75.3507ZM379.379 103.476L379.379 53.3194L393.207 53.3194L393.207 103.476L379.379 103.476ZM386.27 46.9913C384.02 46.9913 382.145 46.2882 380.645 44.8819C379.176 43.4757 378.441 41.7257 378.441 39.6319C378.441 37.5382 379.176 35.8038 380.645 34.4288C382.145 33.0226 384.02 32.3194 386.27 32.3194C388.52 32.3194 390.395 33.0226 391.895 34.4288C393.395 35.8038 394.145 37.5382 394.145 39.6319C394.145 41.7257 393.395 43.4757 391.895 44.8819C390.395 46.2882 388.52 46.9913 386.27 46.9913ZM432.02 53.3194L432.02 64.1476L399.816 64.1476L399.816 53.3194L432.02 53.3194ZM408.066 40.0538L421.941 40.0538L421.941 88.1944C421.941 89.8507 422.285 91.0226 422.973 91.7101C423.66 92.3663 424.926 92.6944 426.77 92.6944C427.488 92.6944 428.379 92.6944 429.441 92.6944C430.504 92.6632 431.316 92.6319 431.879 92.6007L432.301 103.382C431.332 103.476 430.082 103.538 428.551 103.569C427.051 103.601 425.551 103.616 424.051 103.616C418.645 103.616 414.629 102.507 412.004 100.288C409.379 98.0694 408.066 94.6788 408.066 90.1163L408.066 40.0538ZM439.473 103.476L439.473 53.3194L453.301 53.3194L453.301 103.476L439.473 103.476ZM446.363 46.9913C444.113 46.9913 442.238 46.2882 440.738 44.8819C439.27 43.4757 438.535 41.7257 438.535 39.6319C438.535 37.5382 439.27 35.8038 440.738 34.4288C442.238 33.0226 444.113 32.3194 446.363 32.3194C448.613 32.3194 450.488 33.0226 451.988 34.4288C453.488 35.8038 454.238 37.5382 454.238 39.6319C454.238 41.7257 453.488 43.4757 451.988 44.8819C450.488 46.2882 448.613 46.9913 446.363 46.9913ZM486.723 104.601C481.66 104.601 477.238 103.507 473.457 101.319C469.676 99.1319 466.723 96.0851 464.598 92.1788C462.504 88.2726 461.457 83.7101 461.457 78.4913C461.457 73.2413 462.504 68.6632 464.598 64.7569C466.723 60.8194 469.676 57.7569 473.457 55.5694C477.238 53.3819 481.66 52.2882 486.723 52.2882C491.785 52.2882 496.207 53.3819 499.988 55.5694C503.77 57.7569 506.707 60.8194 508.801 64.7569C510.926 68.6632 511.988 73.2413 511.988 78.4913C511.988 83.7101 510.926 88.2726 508.801 92.1788C506.707 96.0851 503.77 99.1319 499.988 101.319C496.207 103.507 491.785 104.601 486.723 104.601ZM486.723 93.3976C489.035 93.3976 491.02 92.7882 492.676 91.5694C494.363 90.3507 495.66 88.6319 496.566 86.4132C497.504 84.1632 497.973 81.5226 497.973 78.4913C497.973 75.3976 497.504 72.7413 496.566 70.5226C495.66 68.2726 494.363 66.5382 492.676 65.3194C491.02 64.1007 489.035 63.4913 486.723 63.4913C484.441 63.4913 482.457 64.1007 480.77 65.3194C479.082 66.5382 477.77 68.2726 476.832 70.5226C475.926 72.7413 475.473 75.3976 475.473 78.4913C475.473 81.5226 475.926 84.1632 476.832 86.4132C477.77 88.6319 479.082 90.3507 480.77 91.5694C482.457 92.7882 484.441 93.3976 486.723 93.3976ZM536.879 103.476L561.254 33.6319L579.863 33.6319L604.379 103.476L588.395 103.476L577.379 69.5382C576.035 65.1007 574.645 60.4757 573.207 55.6632C571.801 50.8194 570.285 45.3819 568.66 39.3507L572.457 39.3507C570.801 45.3819 569.27 50.8194 567.863 55.6632C566.457 60.5069 565.066 65.1319 563.691 69.5382L552.488 103.476L536.879 103.476ZM552.301 88.0538L552.301 76.5694L588.957 76.5694L588.957 88.0538L552.301 88.0538ZM625.051 33.6319L625.051 103.476L610.66 103.476L610.66 33.6319L625.051 33.6319Z" fill="#FF7700"/>
<g clip-path="url(#clip0_10_32)">
<path d="M19.3321 3.89872C16.9497 4.63348 15.5024 6.79325 15.8809 9.04208C16.1481 10.6675 15.9922 10.7788 11.5614 11.8253C10.2922 12.1147 9.20123 12.4042 9.15669 12.471C9.0899 12.5155 9.31255 13.7179 9.64654 15.1206C10.3368 18.1042 10.3145 18.8612 9.55748 19.1729C7.26412 20.1081 6.06177 21.3327 5.75005 23.0694C5.19341 26.1643 7.57583 28.7694 10.8711 28.5913C11.8731 28.5468 12.2961 28.6136 12.5633 28.903C12.786 29.1034 13.2758 30.6843 13.6989 32.5768C14.1219 34.3804 14.5004 35.9167 14.5672 35.9612C14.6118 36.0057 15.6583 35.8054 16.9274 35.5159L19.1985 34.9815L19.4657 33.512C19.8219 31.5526 20.4231 30.4616 21.7813 29.2147C23.6739 27.5225 26.4126 26.9214 28.8395 27.6339C30.6208 28.1682 31.7786 29.1479 33.2481 31.3745C33.4485 31.6639 33.7379 31.6417 35.7641 31.1518C37.6122 30.7065 38.0352 30.5284 38.0352 30.1944C38.0352 29.8382 37.3227 26.5429 37.011 25.4964C36.9442 25.2292 36.5434 25.0956 35.6305 25.0065C33.2926 24.8061 31.2442 23.3589 30.1086 21.1323C29.5297 19.9745 29.4629 19.6182 29.4629 17.7257C29.4629 15.9667 29.552 15.4546 29.9751 14.6753C30.6653 13.3616 31.6895 12.2483 32.7137 11.6694C33.1813 11.4022 33.5821 11.0237 33.5821 10.8456C33.5821 10.3557 32.7583 7.26083 32.6024 7.0827C32.5133 7.0159 31.0883 7.28309 29.3961 7.68387C27.704 8.06239 26.1454 8.32958 25.9227 8.24051C25.7223 8.15145 25.277 7.48348 24.9208 6.72645C24.5868 5.96942 23.9856 5.07879 23.5848 4.76708C22.4715 3.83192 20.7348 3.47567 19.3321 3.89872Z" fill="url(#paint0_linear_10_32)"/>
<path d="M52.5079 21.7335C52.5079 24.5389 52.4856 24.6725 51.9512 25.1846C51.595 25.5632 51.1719 25.7413 50.6821 25.7413C49.5465 25.7413 48.0325 26.6096 47.2754 27.7007C46.6743 28.569 46.6075 28.8585 46.6075 30.2612C46.6075 33.0221 47.9879 34.7366 50.4594 35.0261C52.3743 35.2487 52.5079 35.5604 52.5079 39.6796L52.5079 43.1085L54.9571 43.1085L57.384 43.1085L57.629 42.2401C58.1856 40.1917 60.2786 38.0987 62.3715 37.5198C66.1344 36.4511 70.2758 38.4772 71.3668 41.9061L71.7454 43.1085L74.2614 43.1085L76.7774 43.1085L76.7774 39.4569C76.7774 35.9167 76.7997 35.7831 77.2672 35.4491C77.5344 35.2487 78.0465 35.0928 78.4028 35.0928C79.2043 35.0928 80.518 34.5362 81.186 33.9128C82.2325 32.9554 82.611 31.8198 82.5219 30.0608C82.4551 28.6581 82.3661 28.3464 81.7649 27.5893C80.8743 26.4983 80.0504 26.0307 78.5586 25.7413C77.9129 25.6077 77.245 25.4073 77.0668 25.2737C76.8442 25.0733 76.7774 24.2495 76.7774 21.9339L76.7774 18.8389L74.2168 18.8389C71.9012 18.8389 71.6563 18.8835 71.6563 19.2397C71.6563 20.0413 70.4762 21.9784 69.4075 22.9358C68.027 24.1827 66.4907 24.7393 64.42 24.7171C62.6165 24.7171 60.7016 23.96 59.4325 22.78C58.72 22.112 57.4063 19.7296 57.4063 19.1061C57.4063 18.9057 56.7606 18.8389 54.9571 18.8389L52.5079 18.8389L52.5079 21.7335Z" fill="url(#paint1_linear_10_32)"/>
<path d="M83.2122 25.296C84.7485 26.8323 85.3051 28.3909 85.1938 30.7511C85.0157 34.1577 83.1899 36.4065 79.6274 37.6089C79.2489 37.7425 79.2266 38.2991 79.2266 45.0901C79.2266 51.1686 79.1821 52.4823 78.9149 52.7495C78.7368 52.9276 78.0911 53.128 77.4899 53.2171C75.9536 53.4175 74.5063 54.3971 73.8829 55.6663C73.4821 56.5124 73.4153 56.98 73.4821 58.2491C73.5489 59.5628 73.6602 59.8968 74.2391 60.6315C75.1075 61.7003 76.3098 62.3905 77.6012 62.5686C78.1801 62.6354 78.759 62.8136 78.9149 62.9471C79.3379 63.2811 79.3602 71.8311 78.9594 72.2319C78.759 72.4323 77.4231 72.4991 74.3059 72.4991C69.3629 72.4991 69.5188 72.5436 69.2293 70.7624C69.0067 69.3819 68.4501 68.4022 67.359 67.5116C66.602 66.9104 66.3126 66.8214 64.9098 66.7546C63.4626 66.6878 63.1954 66.7546 62.1711 67.3557C61.2805 67.8679 60.8797 68.2909 60.4344 69.2038C60.1227 69.8272 59.8555 70.6733 59.8555 71.0296C59.8333 72.655 59.477 72.7218 51.595 72.7218C45.4274 72.7218 44.9153 72.744 44.804 73.1003C44.47 74.3026 43.4235 75.9725 42.5551 76.7296C40.6626 78.3995 37.3227 79.0675 35.2743 78.1991C34.7844 77.9987 34.3836 77.8651 34.3391 77.8874C34.3169 77.9319 34.8958 78.9116 35.6305 80.0694C37.3004 82.7413 39.6161 87.4393 40.3731 89.755C41.5754 93.4511 41.9094 97.5034 41.2637 100.932C40.9965 102.402 40.3954 103.782 37.3672 109.861C35.4079 113.802 33.8047 117.097 33.8047 117.142C33.8047 117.208 42.9559 117.253 54.1333 117.253L74.484 117.253L74.8626 115.85C75.6864 112.911 77.245 110.462 79.004 109.349C81.0524 108.057 84.1251 107.768 89.3797 108.324C90.8493 108.503 93.2317 108.592 94.6344 108.525C96.8165 108.436 97.3731 108.347 98.2637 107.879C100.223 106.877 100.757 105.497 100.268 102.669C99.9114 100.643 100.09 99.7745 101.27 97.5034C102.071 96.0339 102.16 95.6776 102.16 94.2749C102.16 92.4936 102.361 92.0261 103.474 91.0686L104.275 90.3561L104.209 87.662C104.12 83.9659 104.543 83.2757 107.059 82.8526C108.884 82.5632 109.508 82.0288 109.508 80.8487C109.508 80.5593 108.35 78.0432 106.925 75.2378C103.875 69.2261 103.273 67.6007 103.273 65.3518C103.273 63.9268 103.385 63.5038 104.253 61.5889C105.634 58.6054 106.034 56.4456 105.879 52.9054C105.522 45.3128 102.16 38.3214 95.9926 32.421C93.4543 29.9718 90.6266 27.9679 87.5317 26.4315C85.7059 25.5186 82.5442 24.1827 82.1879 24.1827C82.1434 24.1827 82.5887 24.6725 83.2122 25.296Z" fill="url(#paint2_linear_10_32)"/>
<path d="M35.9422 40.0803C34.25 40.7261 32.9141 42.6854 32.9141 44.578C32.9141 45.58 32.2016 45.7803 28.7504 45.7803L25.5665 45.7803L25.5665 48.9643C25.5665 52.4155 25.3661 53.128 24.3641 53.128C24.0969 53.128 23.3622 53.2839 22.761 53.462C20.0891 54.2413 18.7532 57.4698 20.0668 60.0303C20.7571 61.4108 21.8704 62.2124 23.5403 62.5464C24.4086 62.7245 25.0766 62.9917 25.2547 63.2589C25.4774 63.5706 25.5665 64.5057 25.5665 66.8659L25.5665 70.0499L28.7504 70.0499C32.5133 70.0499 32.7805 70.1612 33.0032 71.7643C33.2036 73.2116 33.9383 74.4585 35.0961 75.2823C35.9422 75.8612 36.254 75.9503 37.5454 75.9503C38.77 75.9503 39.2153 75.8389 40.0836 75.3268C41.3083 74.6143 42.1766 73.3007 42.3993 71.8311C42.6665 70.0944 42.7555 70.0499 46.5407 70.0499L49.836 70.0499L49.836 67.4893C49.836 65.196 49.7915 64.9288 49.4575 64.9288C48.5891 64.9288 46.7856 63.8378 45.7836 62.7245C44.4922 61.2772 43.9356 59.7854 43.9579 57.6925C44.0024 54.5085 45.9618 51.8811 49.0122 50.9014L49.836 50.6343L49.836 48.2073L49.836 45.7803L46.652 45.7803C42.8891 45.7803 42.5997 45.669 42.377 44.0436C42.043 41.6389 40.4176 40.0358 38.1243 39.8577C37.3004 39.7909 36.4989 39.88 35.9422 40.0803Z" fill="url(#paint3_linear_10_32)"/>
<path d="M62.3493 40.3253C60.9688 41.0378 60.145 42.2401 59.8778 43.9991C59.7665 44.6225 59.5661 45.2682 59.4325 45.4018C59.2544 45.58 58.0075 45.6913 55.7364 45.7358L52.2852 45.8026L52.2852 49.1202C52.2852 52.9053 52.2629 52.9944 50.5485 53.2171C48.1215 53.5288 46.4961 55.3768 46.4961 57.826C46.5184 60.253 47.9434 62.0342 50.2145 62.4573C52.2852 62.8581 52.1739 62.6354 52.2407 66.5764L52.3075 70.0499L54.8235 70.0499L57.3395 70.0499L57.6067 69.1147C58.3637 66.5987 60.3899 64.8175 63.1508 64.2385C64.4868 63.9714 65.6001 64.0827 67.3145 64.6393C68.9399 65.1737 70.8102 67.0885 71.3446 68.7807L71.7454 70.0499L74.2614 70.0499L76.7997 70.0499L76.7329 67.5784L76.6661 65.1292L75.5083 64.7284C70.7434 63.1253 69.2071 56.7573 72.6805 52.9053C73.5044 51.9925 74.9961 51.1018 76.1762 50.8124L76.7774 50.6788L76.7774 48.2296L76.7774 45.7803L73.5489 45.7803C70.3872 45.7803 70.2758 45.7581 69.7637 45.2237C69.3852 44.8675 69.2071 44.4444 69.2071 43.9546C69.2071 43.5315 68.9844 42.7522 68.7172 42.2178C67.5817 39.969 64.7094 39.1229 62.3493 40.3253Z" fill="url(#paint4_linear_10_32)"/>
</g>
<defs>
<linearGradient id="paint0_linear_10_32" x1="21.8522" y1="3.72224" x2="21.8522" y2="35.9674" gradientUnits="userSpaceOnUse">
<stop stop-color="#FF6A00"/>
<stop offset="1" stop-color="#FF9448"/>
</linearGradient>
<linearGradient id="paint1_linear_10_32" x1="64.571" y1="18.8389" x2="64.571" y2="43.1085" gradientUnits="userSpaceOnUse">
<stop stop-color="#FF6A00"/>
<stop offset="1" stop-color="#FF9448"/>
</linearGradient>
<linearGradient id="paint2_linear_10_32" x1="71.6563" y1="24.1827" x2="71.6563" y2="117.253" gradientUnits="userSpaceOnUse">
<stop stop-color="#FF6A00"/>
<stop offset="1" stop-color="#FF9448"/>
</linearGradient>
<linearGradient id="paint3_linear_10_32" x1="34.6961" y1="39.8358" x2="34.6961" y2="75.9503" gradientUnits="userSpaceOnUse">
<stop stop-color="#FF6A00"/>
<stop offset="1" stop-color="#FF9448"/>
</linearGradient>
<linearGradient id="paint4_linear_10_32" x1="61.6479" y1="39.7784" x2="61.6479" y2="70.0499" gradientUnits="userSpaceOnUse">
<stop stop-color="#FF6A00"/>
<stop offset="1" stop-color="#FF9448"/>
</linearGradient>
<clipPath id="clip0_10_32">
<rect width="114" height="114" fill="white" transform="translate(0.62896 3.47567)"/>
</clipPath>
</defs>
</svg>
