<svg width="632" height="131" viewBox="0 0 632 131" fill="none" xmlns="http://www.w3.org/2000/svg">
<path d="M169.281 105.078C162.938 105.078 157.281 103.641 152.313 100.766C147.344 97.8594 143.422 93.7187 140.547 88.3437C137.703 82.9687 136.281 76.5625 136.281 69.125C136.281 61.625 137.703 55.1875 140.547 49.8125C143.422 44.4375 147.344 40.3125 152.313 37.4375C157.313 34.5312 162.969 33.0781 169.281 33.0781C173.344 33.0781 177.109 33.6719 180.578 34.8594C184.078 36.0469 187.172 37.75 189.859 39.9687C192.547 42.1875 194.75 44.875 196.469 48.0312C198.219 51.1562 199.359 54.6875 199.891 58.625L185.359 58.625C184.953 56.5937 184.281 54.7812 183.344 53.1875C182.438 51.5937 181.297 50.25 179.922 49.1562C178.547 48.0625 176.984 47.2344 175.234 46.6719C173.484 46.0781 171.578 45.7812 169.516 45.7812C165.641 45.7812 162.297 46.7344 159.484 48.6406C156.703 50.5156 154.547 53.2031 153.016 56.7031C151.516 60.1719 150.766 64.3125 150.766 69.125C150.766 73.9375 151.516 78.0781 153.016 81.5469C154.547 85.0156 156.703 87.6875 159.484 89.5625C162.297 91.4375 165.641 92.375 169.516 92.375C171.578 92.375 173.469 92.0937 175.188 91.5312C176.938 90.9375 178.5 90.0937 179.875 89C181.25 87.9062 182.406 86.5781 183.344 85.0156C184.281 83.4219 184.953 81.625 185.359 79.625L199.891 79.625C199.391 83.375 198.297 86.8125 196.609 89.9375C194.922 93.0312 192.734 95.7187 190.047 98C187.359 100.25 184.266 102 180.766 103.25C177.266 104.469 173.438 105.078 169.281 105.078ZM231.25 105.125C226.188 105.125 221.766 104.031 217.984 101.844C214.203 99.6562 211.25 96.6094 209.125 92.7031C207.031 88.7969 205.984 84.2344 205.984 79.0156C205.984 73.7656 207.031 69.1875 209.125 65.2812C211.25 61.3437 214.203 58.2812 217.984 56.0937C221.766 53.9062 226.188 52.8125 231.25 52.8125C236.313 52.8125 240.734 53.9062 244.516 56.0937C248.297 58.2812 251.234 61.3437 253.328 65.2812C255.453 69.1875 256.516 73.7656 256.516 79.0156C256.516 84.2344 255.453 88.7969 253.328 92.7031C251.234 96.6094 248.297 99.6562 244.516 101.844C240.734 104.031 236.313 105.125 231.25 105.125ZM231.25 93.9219C233.563 93.9219 235.547 93.3125 237.203 92.0937C238.891 90.875 240.188 89.1562 241.094 86.9375C242.031 84.6875 242.5 82.0469 242.5 79.0156C242.5 75.9219 242.031 73.2656 241.094 71.0469C240.188 68.7969 238.891 67.0625 237.203 65.8437C235.547 64.625 233.563 64.0156 231.25 64.0156C228.969 64.0156 226.984 64.625 225.297 65.8437C223.609 67.0625 222.297 68.7969 221.359 71.0469C220.453 73.2656 220 75.9219 220 79.0156C220 82.0469 220.453 84.6875 221.359 86.9375C222.297 89.1562 223.609 90.875 225.297 92.0937C226.984 93.3125 228.969 93.9219 231.25 93.9219ZM287.922 124.344C283.328 124.344 279.391 123.703 276.109 122.422C272.859 121.141 270.281 119.344 268.375 117.031C266.5 114.75 265.297 112.094 264.766 109.062L277.797 108.312C278.141 109.469 278.766 110.484 279.672 111.359C280.578 112.266 281.719 112.953 283.094 113.422C284.5 113.922 286.109 114.172 287.922 114.172C291.359 114.172 294.016 113.266 295.891 111.453C297.766 109.672 298.703 107 298.703 103.437L298.703 95.4219L298.422 95.4219C297.547 97.2344 296.406 98.7812 295 100.062C293.594 101.312 291.953 102.266 290.078 102.922C288.234 103.547 286.156 103.859 283.844 103.859C279.625 103.859 275.906 102.828 272.688 100.766C269.469 98.6719 266.953 95.7344 265.141 91.9531C263.328 88.1719 262.422 83.7344 262.422 78.6406C262.422 73.4531 263.328 68.9375 265.141 65.0937C266.984 61.2187 269.516 58.2187 272.734 56.0937C275.953 53.9687 279.625 52.9062 283.75 52.9062C286.094 52.9062 288.188 53.25 290.031 53.9375C291.906 54.625 293.563 55.6094 295 56.8906C296.438 58.1406 297.625 59.6406 298.563 61.3906L298.75 61.3906L298.75 53.8437L312.438 53.8437L312.438 102.406C312.438 107.531 311.391 111.703 309.297 114.922C307.234 118.141 304.359 120.516 300.672 122.047C297.016 123.578 292.766 124.344 287.922 124.344ZM287.594 92.8906C289.938 92.8906 291.969 92.3125 293.688 91.1562C295.438 89.9687 296.781 88.2969 297.719 86.1406C298.656 83.9531 299.125 81.3906 299.125 78.4531C299.125 75.5156 298.656 72.9687 297.719 70.8125C296.781 68.625 295.438 66.9375 293.688 65.75C291.969 64.5312 289.938 63.9219 287.594 63.9219C285.313 63.9219 283.328 64.5 281.641 65.6562C279.984 66.8125 278.703 68.4844 277.797 70.6719C276.922 72.8281 276.484 75.4219 276.484 78.4531C276.484 81.4844 276.922 84.0781 277.797 86.2344C278.703 88.3906 279.984 90.0469 281.641 91.2031C283.328 92.3281 285.313 92.8906 287.594 92.8906ZM336.578 75.875L336.578 104L322.75 104L322.75 53.8437L336.25 53.8437L336.297 66.7812L334.281 66.7812C335.813 62.4062 338.016 59 340.891 56.5625C343.766 54.125 347.438 52.9062 351.906 52.9062C355.469 52.9062 358.563 53.6719 361.188 55.2031C363.813 56.7344 365.844 58.9687 367.281 61.9062C368.719 64.8125 369.438 68.3437 369.438 72.5L369.438 104L355.609 104L355.609 74.9844C355.609 71.7031 354.797 69.1875 353.172 67.4375C351.578 65.6562 349.328 64.7656 346.422 64.7656C344.484 64.7656 342.781 65.1719 341.313 65.9844C339.844 66.7969 338.688 68.0156 337.844 69.6406C337 71.2656 336.578 73.3437 336.578 75.875ZM379.75 104L379.75 53.8437L393.578 53.8437L393.578 104L379.75 104ZM386.641 47.5156C384.391 47.5156 382.516 46.8125 381.016 45.4062C379.547 44 378.813 42.25 378.813 40.1562C378.813 38.0625 379.547 36.3281 381.016 34.9531C382.516 33.5469 384.391 32.8437 386.641 32.8437C388.891 32.8437 390.766 33.5469 392.266 34.9531C393.766 36.3281 394.516 38.0625 394.516 40.1562C394.516 42.25 393.766 44 392.266 45.4062C390.766 46.8125 388.891 47.5156 386.641 47.5156ZM432.391 53.8437L432.391 64.6719L400.188 64.6719L400.188 53.8437L432.391 53.8437ZM408.438 40.5781L422.313 40.5781L422.313 88.7187C422.313 90.375 422.656 91.5469 423.344 92.2344C424.031 92.8906 425.297 93.2187 427.141 93.2187C427.859 93.2187 428.75 93.2187 429.813 93.2187C430.875 93.1875 431.688 93.1562 432.25 93.125L432.672 103.906C431.703 104 430.453 104.062 428.922 104.094C427.422 104.125 425.922 104.141 424.422 104.141C419.016 104.141 415 103.031 412.375 100.812C409.75 98.5937 408.438 95.2031 408.438 90.6406L408.438 40.5781ZM439.844 104L439.844 53.8437L453.672 53.8437L453.672 104L439.844 104ZM446.734 47.5156C444.484 47.5156 442.609 46.8125 441.109 45.4062C439.641 44 438.906 42.25 438.906 40.1562C438.906 38.0625 439.641 36.3281 441.109 34.9531C442.609 33.5469 444.484 32.8437 446.734 32.8437C448.984 32.8437 450.859 33.5469 452.359 34.9531C453.859 36.3281 454.609 38.0625 454.609 40.1562C454.609 42.25 453.859 44 452.359 45.4062C450.859 46.8125 448.984 47.5156 446.734 47.5156ZM487.094 105.125C482.031 105.125 477.609 104.031 473.828 101.844C470.047 99.6562 467.094 96.6094 464.969 92.7031C462.875 88.7969 461.828 84.2344 461.828 79.0156C461.828 73.7656 462.875 69.1875 464.969 65.2812C467.094 61.3437 470.047 58.2812 473.828 56.0937C477.609 53.9062 482.031 52.8125 487.094 52.8125C492.156 52.8125 496.578 53.9062 500.359 56.0937C504.141 58.2812 507.078 61.3437 509.172 65.2812C511.297 69.1875 512.359 73.7656 512.359 79.0156C512.359 84.2344 511.297 88.7969 509.172 92.7031C507.078 96.6094 504.141 99.6562 500.359 101.844C496.578 104.031 492.156 105.125 487.094 105.125ZM487.094 93.9219C489.406 93.9219 491.391 93.3125 493.047 92.0937C494.734 90.875 496.031 89.1562 496.938 86.9375C497.875 84.6875 498.344 82.0469 498.344 79.0156C498.344 75.9219 497.875 73.2656 496.938 71.0469C496.031 68.7969 494.734 67.0625 493.047 65.8437C491.391 64.625 489.406 64.0156 487.094 64.0156C484.813 64.0156 482.828 64.625 481.141 65.8437C479.453 67.0625 478.141 68.7969 477.203 71.0469C476.297 73.2656 475.844 75.9219 475.844 79.0156C475.844 82.0469 476.297 84.6875 477.203 86.9375C478.141 89.1562 479.453 90.875 481.141 92.0937C482.828 93.3125 484.813 93.9219 487.094 93.9219ZM537.25 104L561.625 34.1562L580.234 34.1562L604.75 104L588.766 104L577.75 70.0625C576.406 65.625 575.016 61 573.578 56.1875C572.172 51.3437 570.656 45.9062 569.031 39.875L572.828 39.875C571.172 45.9062 569.641 51.3437 568.234 56.1875C566.828 61.0312 565.438 65.6562 564.063 70.0625L552.859 104L537.25 104ZM552.672 88.5781L552.672 77.0937L589.328 77.0937L589.328 88.5781L552.672 88.5781ZM625.422 34.1562L625.422 104L611.031 104L611.031 34.1562L625.422 34.1562Z" />
<g clip-path="url(#clip0_10_32)">
<path d="M19.7031 4.42302C17.3207 5.15779 15.8734 7.31755 16.252 9.56638C16.5191 11.1918 16.3633 11.3031 11.9324 12.3496C10.6633 12.639 9.57227 12.9285 9.52774 12.9953C9.46095 13.0398 9.6836 14.2422 10.0176 15.6449C10.7078 18.6285 10.6856 19.3855 9.92852 19.6972C7.63516 20.6324 6.43282 21.857 6.1211 23.5937C5.56446 26.6886 7.94688 29.2937 11.2422 29.1156C12.2441 29.0711 12.6672 29.1379 12.9344 29.4273C13.157 29.6277 13.6469 31.2086 14.0699 33.1011C14.493 34.9047 14.8715 36.441 14.9383 36.4855C14.9828 36.5301 16.0293 36.3297 17.2984 36.0402L19.5695 35.5058L19.8367 34.0363C20.193 32.0769 20.7941 30.9859 22.1524 29.739C24.0449 28.0468 26.7836 27.4457 29.2106 28.1582C30.9918 28.6926 32.1496 29.6722 33.6191 31.8988C33.8195 32.1883 34.109 32.166 36.1352 31.6761C37.9832 31.2308 38.4063 31.0527 38.4063 30.7187C38.4063 30.3625 37.6938 27.0672 37.382 26.0207C37.3152 25.7535 36.9145 25.6199 36.0016 25.5308C33.6637 25.3304 31.6152 23.8832 30.4797 21.6566C29.9008 20.4988 29.834 20.1426 29.834 18.25C29.834 16.491 29.9231 15.9789 30.3461 15.1996C31.0363 13.8859 32.0606 12.7726 33.0848 12.1937C33.5524 11.9265 33.9531 11.548 33.9531 11.3699C33.9531 10.8801 33.1293 7.78513 32.9734 7.60701C32.8844 7.54021 31.4594 7.8074 29.7672 8.20818C28.075 8.5867 26.5164 8.85388 26.2938 8.76482C26.0934 8.67576 25.6481 8.00779 25.2918 7.25076C24.9578 6.49373 24.3566 5.6031 23.9559 5.29138C22.8426 4.35623 21.1059 3.99998 19.7031 4.42302Z" />
<path d="M52.8789 22.2578C52.8789 25.0633 52.8566 25.1968 52.3223 25.709C51.966 26.0875 51.543 26.2656 51.0531 26.2656C49.9176 26.2656 48.4035 27.134 47.6465 28.225C47.0453 29.0933 46.9785 29.3828 46.9785 30.7855C46.9785 33.5465 48.359 35.2609 50.8305 35.5504C52.7453 35.773 52.8789 36.0847 52.8789 40.2039L52.8789 43.6328L55.3281 43.6328L57.7551 43.6328L58 42.7644C58.5566 40.716 60.6496 38.623 62.7426 38.0441C66.5055 36.9754 70.6469 39.0015 71.7379 42.4304L72.1164 43.6328L74.6324 43.6328L77.1484 43.6328L77.1484 39.9812C77.1484 36.441 77.1707 36.3074 77.6383 35.9734C77.9055 35.773 78.4176 35.6172 78.7738 35.6172C79.5754 35.6172 80.8891 35.0605 81.557 34.4371C82.6035 33.4797 82.982 32.3441 82.893 30.5851C82.8262 29.1824 82.7371 28.8707 82.1359 28.1136C81.2453 27.0226 80.4215 26.555 78.9297 26.2656C78.284 26.132 77.616 25.9316 77.4379 25.798C77.2152 25.5976 77.1484 24.7738 77.1484 22.4582L77.1484 19.3633L74.5879 19.3633C72.2723 19.3633 72.0273 19.4078 72.0273 19.764C72.0273 20.5656 70.8473 22.5027 69.7785 23.4601C68.398 24.707 66.8617 25.2636 64.791 25.2414C62.9875 25.2414 61.0727 24.4843 59.8035 23.3043C59.091 22.6363 57.7773 20.2539 57.7773 19.6304C57.7773 19.43 57.1316 19.3633 55.3281 19.3633L52.8789 19.3633L52.8789 22.2578Z" />
<path d="M83.5832 25.8203C85.1195 27.3566 85.6762 28.9152 85.5648 31.2754C85.3867 34.682 83.5609 36.9308 79.9984 38.1332C79.6199 38.2668 79.5977 38.8234 79.5977 45.6144C79.5977 51.6929 79.5531 53.0066 79.2859 53.2738C79.1078 53.4519 78.4621 53.6523 77.8609 53.7414C76.3246 53.9418 74.8773 54.9215 74.2539 56.1906C73.8531 57.0367 73.7863 57.5043 73.8531 58.7734C73.9199 60.0871 74.0312 60.4211 74.6102 61.1558C75.4785 62.2246 76.6809 62.9148 77.9723 63.0929C78.5512 63.1597 79.1301 63.3379 79.2859 63.4715C79.709 63.8054 79.7312 72.3554 79.3305 72.7562C79.1301 72.9566 77.7941 73.0234 74.677 73.0234C69.734 73.0234 69.8898 73.0679 69.6004 71.2867C69.3777 69.9062 68.8211 68.9265 67.7301 68.0359C66.973 67.4347 66.6836 67.3457 65.2809 67.2789C63.8336 67.2121 63.5664 67.2789 62.5422 67.88C61.6516 68.3922 61.2508 68.8152 60.8055 69.7281C60.4937 70.3515 60.2266 71.1976 60.2266 71.5539C60.2043 73.1793 59.848 73.2461 51.966 73.2461C45.7984 73.2461 45.2863 73.2683 45.175 73.6246C44.841 74.8269 43.7945 76.4968 42.9262 77.2539C41.0336 78.9238 37.6937 79.5918 35.6453 78.7234C35.1555 78.523 34.7547 78.3894 34.7102 78.4117C34.6879 78.4562 35.2668 79.4359 36.0016 80.5937C37.6715 83.2656 39.9871 87.9636 40.7441 90.2793C41.9465 93.9754 42.2805 98.0277 41.6348 101.457C41.3676 102.926 40.7664 104.307 37.7383 110.385C35.7789 114.326 34.1758 117.621 34.1758 117.666C34.1758 117.733 43.327 117.777 54.5043 117.777L74.8551 117.777L75.2336 116.375C76.0574 113.436 77.616 110.986 79.375 109.873C81.4234 108.582 84.4961 108.292 89.7508 108.849C91.2203 109.027 93.6027 109.116 95.0055 109.049C97.1875 108.96 97.7441 108.871 98.6348 108.403C100.594 107.402 101.129 106.021 100.639 103.193C100.282 101.167 100.461 100.299 101.641 98.0277C102.442 96.5582 102.531 96.2019 102.531 94.7992C102.531 93.0179 102.732 92.5504 103.845 91.5929L104.646 90.8804L104.58 88.1863C104.491 84.4902 104.914 83.8 107.43 83.3769C109.255 83.0875 109.879 82.5531 109.879 81.373C109.879 81.0836 108.721 78.5675 107.296 75.7621C104.246 69.7504 103.645 68.125 103.645 65.8761C103.645 64.4511 103.756 64.0281 104.624 62.1133C106.005 59.1297 106.405 56.9699 106.25 53.4297C105.893 45.8371 102.531 38.8457 96.3637 32.9453C93.8254 30.4961 90.9977 28.4922 87.9027 26.9558C86.077 26.0429 82.9152 24.707 82.559 24.707C82.5145 24.707 82.9598 25.1968 83.5832 25.8203Z" />
<path d="M36.3133 40.6047C34.6211 41.2504 33.2852 43.2097 33.2852 45.1023C33.2852 46.1043 32.5727 46.3047 29.1215 46.3047L25.9375 46.3047L25.9375 49.4886C25.9375 52.9398 25.7371 53.6523 24.7352 53.6523C24.468 53.6523 23.7332 53.8082 23.132 53.9863C20.4602 54.7656 19.1242 57.9941 20.4379 60.5547C21.1281 61.9351 22.2414 62.7367 23.9113 63.0707C24.7797 63.2488 25.4477 63.516 25.6258 63.7832C25.8484 64.0949 25.9375 65.03 25.9375 67.3902L25.9375 70.5742L29.1215 70.5742C32.8844 70.5742 33.1516 70.6855 33.3742 72.2886C33.5746 73.7359 34.3094 74.9828 35.4672 75.8066C36.3133 76.3855 36.625 76.4746 37.9164 76.4746C39.141 76.4746 39.5863 76.3633 40.4547 75.8511C41.6793 75.1386 42.5477 73.825 42.7703 72.3554C43.0375 70.6187 43.1266 70.5742 46.9117 70.5742L50.207 70.5742L50.207 68.0136C50.207 65.7203 50.1625 65.4531 49.8285 65.4531C48.9602 65.4531 47.1566 64.3621 46.1547 63.2488C44.8633 61.8015 44.3066 60.3097 44.3289 58.2168C44.3734 55.0328 46.3328 52.4054 49.3832 51.4257L50.207 51.1586L50.207 48.7316L50.207 46.3047L47.023 46.3047C43.2602 46.3047 42.9707 46.1933 42.748 44.5679C42.4141 42.1632 40.7887 40.5601 38.4953 40.382C37.6715 40.3152 36.8699 40.4043 36.3133 40.6047Z" />
<path d="M62.7203 40.8496C61.3398 41.5621 60.516 42.7644 60.2488 44.5234C60.1375 45.1468 59.9371 45.7926 59.8035 45.9261C59.6254 46.1043 58.3785 46.2156 56.1074 46.2601L52.6563 46.3269L52.6563 49.6445C52.6563 53.4297 52.634 53.5187 50.9195 53.7414C48.4926 54.0531 46.8672 55.9011 46.8672 58.3504C46.8895 60.7773 48.3145 62.5586 50.5855 62.9816C52.6563 63.3824 52.5449 63.1597 52.6117 67.1008L52.6785 70.5742L55.1945 70.5742L57.7105 70.5742L57.9777 69.639C58.7348 67.123 60.7609 65.3418 63.5219 64.7629C64.8578 64.4957 65.9711 64.607 67.6855 65.1636C69.3109 65.698 71.1813 67.6129 71.7156 69.305L72.1164 70.5742L74.6324 70.5742L77.1707 70.5742L77.1039 68.1027L77.0371 65.6535L75.8793 65.2527C71.1145 63.6496 69.5781 57.2816 73.0516 53.4297C73.8754 52.5168 75.3672 51.6261 76.5473 51.3367L77.1484 51.2031L77.1484 48.7539L77.1484 46.3047L73.9199 46.3047C70.7582 46.3047 70.6469 46.2824 70.1348 45.748C69.7563 45.3918 69.5781 44.9687 69.5781 44.4789C69.5781 44.0558 69.3555 43.2765 69.0883 42.7422C67.9527 40.4933 65.0805 39.6472 62.7203 40.8496Z" />
</g>
<defs>
<clipPath id="clip0_10_32">
<rect width="114" height="114"  transform="translate(1 3.99998)"/>
</clipPath>
</defs>
</svg>
