<svg width="177" height="39" viewBox="0 0 177 39"  xmlns="http://www.w3.org/2000/svg">
<path d="M47.4094 31.2828C45.6329 31.2828 44.0486 30.855 42.6573 29.999C41.2656 29.1337 40.1672 27.901 39.362 26.3008C38.5655 24.7006 38.1673 22.7934 38.1673 20.5792C38.1673 18.3464 38.5655 16.4299 39.362 14.8297C40.1672 13.2295 41.2656 12.0014 42.6573 11.1455C44.0576 10.2803 45.6416 9.84768 47.4094 9.84768C48.5473 9.84768 49.6017 10.0245 50.5732 10.378C51.5535 10.7315 52.42 11.2385 53.1725 11.8991C53.9253 12.5596 54.5423 13.3597 55.0237 14.2994C55.5138 15.2297 55.8331 16.281 55.9821 17.4532L51.9122 17.4532C51.7985 16.8485 51.6103 16.3089 51.3479 15.8344C51.0942 15.36 50.7746 14.9599 50.3895 14.6343C50.0044 14.3087 49.5667 14.0621 49.0766 13.8947C48.5865 13.7179 48.0527 13.6295 47.4752 13.6295C46.3899 13.6295 45.4534 13.9133 44.6656 14.4808C43.8867 15.039 43.2829 15.8391 42.8541 16.8811C42.434 17.9138 42.224 19.1465 42.224 20.5792C42.224 22.0119 42.434 23.2446 42.8541 24.2773C43.2829 25.31 43.8867 26.1054 44.6656 26.6636C45.4534 27.2218 46.3899 27.501 47.4752 27.501C48.0527 27.501 48.5823 27.4172 49.0637 27.2497C49.5538 27.073 49.9913 26.8218 50.3764 26.4962C50.7614 26.1705 51.0852 25.7752 51.3479 25.31C51.6103 24.8355 51.7985 24.3006 51.9122 23.7051L55.9821 23.7051C55.8421 24.8216 55.5357 25.8449 55.0629 26.7753C54.5905 27.6963 53.9777 28.4964 53.2252 29.1756C52.4723 29.8454 51.6061 30.3664 50.6259 30.7385C49.6457 31.1015 48.5736 31.2828 47.4094 31.2828ZM64.7646 31.2968C63.3469 31.2968 62.1085 30.9711 61.0493 30.32C59.9904 29.6686 59.1633 28.7616 58.5682 27.5986C57.9818 26.4357 57.6885 25.0774 57.6885 23.5237C57.6885 21.9607 57.9818 20.5978 58.5682 19.4349C59.1633 18.2626 59.9904 17.3509 61.0493 16.6996C62.1085 16.0484 63.3469 15.7228 64.7646 15.7228C66.1826 15.7228 67.4207 16.0484 68.4799 16.6996C69.5388 17.3509 70.3614 18.2626 70.9478 19.4349C71.543 20.5978 71.8407 21.9607 71.8407 23.5237C71.8407 25.0774 71.543 26.4357 70.9478 27.5986C70.3614 28.7616 69.5388 29.6686 68.4799 30.32C67.4207 30.9711 66.1826 31.2968 64.7646 31.2968ZM64.7646 27.9615C65.4124 27.9615 65.968 27.7801 66.4318 27.4172C66.9046 27.0544 67.2678 26.5427 67.5215 25.8822C67.784 25.2123 67.9153 24.4262 67.9153 23.5237C67.9153 22.6027 67.784 21.8119 67.5215 21.1514C67.2678 20.4815 66.9046 19.9652 66.4318 19.6023C65.968 19.2395 65.4124 19.0581 64.7646 19.0581C64.1258 19.0581 63.5699 19.2395 63.0974 19.6023C62.6246 19.9652 62.2572 20.4815 61.9945 21.1514C61.7408 21.8119 61.6139 22.6027 61.6139 23.5237C61.6139 24.4262 61.7408 25.2123 61.9945 25.8822C62.2572 26.5427 62.6246 27.0544 63.0974 27.4172C63.5699 27.7801 64.1258 27.9615 64.7646 27.9615ZM80.6363 37.0184C79.3497 37.0184 78.2471 36.8276 77.328 36.4462C76.4178 36.0649 75.6958 35.5299 75.162 34.8413C74.6368 34.1622 74.2999 33.3715 74.1512 32.4688L77.8007 32.2456C77.897 32.59 78.0721 32.8922 78.3258 33.1527C78.5796 33.4227 78.8991 33.6272 79.2842 33.7668C79.678 33.9157 80.1286 33.9901 80.6363 33.9901C81.5989 33.9901 82.343 33.7204 82.8682 33.1807C83.3933 32.6504 83.6557 31.855 83.6557 30.7942L83.6557 28.408L83.577 28.408C83.332 28.9476 83.0124 29.4081 82.6186 29.7894C82.2249 30.1616 81.7653 30.4456 81.2402 30.6409C80.7237 30.827 80.1418 30.9199 79.4942 30.9199C78.3127 30.9199 77.2711 30.6129 76.3699 29.999C75.4683 29.3756 74.7637 28.5011 74.2562 27.3753C73.7485 26.2496 73.4947 24.9286 73.4947 23.4121C73.4947 21.8677 73.7485 20.5234 74.2562 19.379C74.7724 18.2254 75.4815 17.3323 76.3827 16.6996C77.2843 16.067 78.3127 15.7507 79.4679 15.7507C80.1244 15.7507 80.7108 15.8531 81.227 16.0577C81.7521 16.2624 82.2162 16.5555 82.6186 16.9369C83.0214 17.309 83.3538 17.7556 83.6165 18.2766L83.6689 18.2766L83.6689 16.0298L87.5024 16.0298L87.5024 30.4873C87.5024 32.013 87.2091 33.2551 86.6227 34.2134C86.0449 35.1717 85.2397 35.8788 84.2072 36.3346C83.1832 36.7904 81.993 37.0184 80.6363 37.0184ZM80.5445 27.6545C81.201 27.6545 81.7698 27.4823 82.2512 27.1381C82.7413 26.7846 83.1174 26.2869 83.3801 25.6449C83.6425 24.9937 83.7739 24.2308 83.7739 23.3563C83.7739 22.4817 83.6425 21.7235 83.3801 21.0816C83.1174 20.4303 82.7413 19.928 82.2512 19.5744C81.7698 19.2116 81.201 19.0302 80.5445 19.0302C79.9057 19.0302 79.3497 19.2023 78.8773 19.5465C78.4132 19.8907 78.0544 20.3885 77.8007 21.0397C77.5556 21.6816 77.433 22.4538 77.433 23.3563C77.433 24.2587 77.5556 25.0309 77.8007 25.6728C78.0544 26.3148 78.4132 26.8079 78.8773 27.1521C79.3497 27.487 79.9057 27.6545 80.5445 27.6545ZM94.2631 22.5887L94.2631 30.9618L90.3904 30.9618L90.3904 16.0298L94.1712 16.0298L94.1844 19.8814L93.6198 19.8814C94.0489 18.5789 94.6658 17.5649 95.471 16.8392C96.2762 16.1135 97.3046 15.7507 98.5559 15.7507C99.5538 15.7507 100.42 15.9787 101.155 16.4345C101.891 16.8904 102.459 17.5556 102.862 18.4301C103.265 19.2953 103.466 20.3466 103.466 21.584L103.466 30.9618L99.593 30.9618L99.593 22.3236C99.593 21.3467 99.3656 20.5978 98.9105 20.0768C98.464 19.5465 97.8339 19.2814 97.02 19.2814C96.4773 19.2814 96.0003 19.4023 95.5892 19.6442C95.1778 19.8861 94.854 20.2489 94.6177 20.7327C94.3813 21.2165 94.2631 21.8351 94.2631 22.5887ZM106.354 30.9618L106.354 16.0298L110.227 16.0298L110.227 30.9618L106.354 30.9618ZM108.284 14.1459C107.654 14.1459 107.129 13.9365 106.709 13.5179C106.297 13.0992 106.092 12.5782 106.092 11.9549C106.092 11.3316 106.297 10.8152 106.709 10.4059C107.129 9.98724 107.654 9.77789 108.284 9.77789C108.914 9.77789 109.439 9.98724 109.859 10.4059C110.279 10.8152 110.489 11.3316 110.489 11.9549C110.489 12.5782 110.279 13.0992 109.859 13.5179C109.439 13.9365 108.914 14.1459 108.284 14.1459ZM121.097 16.0298L121.097 19.2535L112.078 19.2535L112.078 16.0298L121.097 16.0298ZM114.388 12.0805L118.274 12.0805L118.274 26.4124C118.274 26.9055 118.37 27.2544 118.563 27.4591C118.755 27.6544 119.11 27.7521 119.626 27.7521C119.828 27.7521 120.077 27.7521 120.375 27.7521C120.672 27.7428 120.9 27.7335 121.057 27.7242L121.175 30.9338C120.904 30.9618 120.554 30.9803 120.125 30.9898C119.705 30.999 119.285 31.0038 118.865 31.0038C117.351 31.0038 116.226 30.6733 115.491 30.0127C114.756 29.3523 114.388 28.3429 114.388 26.9846L114.388 12.0805ZM123.184 30.9618L123.184 16.0298L127.057 16.0298L127.057 30.9618L123.184 30.9618ZM125.114 14.1459C124.484 14.1459 123.958 13.9365 123.538 13.5179C123.127 13.0992 122.921 12.5782 122.921 11.9549C122.921 11.3316 123.127 10.8152 123.538 10.4059C123.958 9.98724 124.484 9.77789 125.114 9.77789C125.744 9.77789 126.269 9.98724 126.689 10.4059C127.109 10.8152 127.319 11.3316 127.319 11.9549C127.319 12.5782 127.109 13.0992 126.689 13.5179C126.269 13.9365 125.744 14.1459 125.114 14.1459ZM136.417 31.2968C134.999 31.2968 133.761 30.9711 132.702 30.32C131.643 29.6686 130.816 28.7616 130.221 27.5986C129.634 26.4357 129.341 25.0774 129.341 23.5237C129.341 21.9607 129.634 20.5978 130.221 19.4349C130.816 18.2626 131.643 17.3509 132.702 16.6996C133.761 16.0484 134.999 15.7228 136.417 15.7228C137.835 15.7228 139.073 16.0484 140.132 16.6996C141.191 17.3509 142.014 18.2626 142.6 19.4349C143.195 20.5978 143.493 21.9607 143.493 23.5237C143.493 25.0774 143.195 26.4357 142.6 27.5986C142.014 28.7616 141.191 29.6686 140.132 30.32C139.073 30.9711 137.835 31.2968 136.417 31.2968ZM136.417 27.9615C137.065 27.9615 137.621 27.7801 138.084 27.4172C138.557 27.0544 138.92 26.5427 139.174 25.8822C139.436 25.2123 139.568 24.4262 139.568 23.5237C139.568 22.6027 139.436 21.8119 139.174 21.1514C138.92 20.4815 138.557 19.9652 138.084 19.6023C137.621 19.2395 137.065 19.0581 136.417 19.0581C135.778 19.0581 135.222 19.2395 134.75 19.6023C134.277 19.9652 133.91 20.4815 133.647 21.1514C133.393 21.8119 133.266 22.6027 133.266 23.5237C133.266 24.4262 133.393 25.2123 133.647 25.8822C133.91 26.5427 134.277 27.0544 134.75 27.4172C135.222 27.7801 135.778 27.9615 136.417 27.9615ZM150.464 30.9618L157.29 10.1686L162.502 10.1686L169.368 30.9618L164.892 30.9618L161.807 20.8583C161.43 19.5372 161.041 18.1603 160.638 16.7276C160.244 15.2855 159.82 13.6667 159.365 11.8712L160.428 11.8712C159.964 13.6667 159.535 15.2855 159.141 16.7276C158.748 18.1696 158.358 19.5465 157.973 20.8583L154.835 30.9618L150.464 30.9618ZM154.783 26.3706L154.783 22.9516L165.049 22.9516L165.049 26.3706L154.783 26.3706ZM175.158 10.1686L175.158 30.9618L171.127 30.9618L171.127 10.1686L175.158 10.1686Z" />
<mask id="mask0_16_37" style="mask-type:luminance" maskUnits="userSpaceOnUse" x="0" y="1" width="33" height="35">
<path d="M32.2073 1.19083L0.28006 1.19083L0.28006 35.1298L32.2073 35.1298L32.2073 1.19083Z" fill="white"/>
</mask>
<g mask="url(#mask0_16_37)">
<path d="M5.51812 1.31676C4.85089 1.53551 4.44556 2.17849 4.55159 2.84799C4.62639 3.33189 4.58276 3.36503 3.34183 3.67658C2.9864 3.76274 2.68084 3.84892 2.66837 3.86881C2.64966 3.88206 2.71202 4.24003 2.80556 4.65762C2.99886 5.54587 2.99264 5.77124 2.78061 5.86403C2.13833 6.14245 1.8016 6.50703 1.71429 7.02406C1.5584 7.94544 2.22563 8.72101 3.14853 8.66798C3.42912 8.65474 3.54762 8.67462 3.62245 8.76078C3.68479 8.82044 3.822 9.29109 3.94046 9.85451C4.05896 10.3915 4.16496 10.8488 4.18367 10.8621C4.19613 10.8754 4.48922 10.8157 4.84465 10.7295L5.4807 10.5704L5.55553 10.1329C5.65532 9.54959 5.82366 9.22479 6.20407 8.85358C6.73409 8.34979 7.5011 8.17084 8.18082 8.38296C8.67967 8.54205 9.00392 8.83369 9.41548 9.49657C9.4716 9.58276 9.55268 9.57612 10.1201 9.43027C10.6377 9.2977 10.7562 9.24468 10.7562 9.14524C10.7562 9.0392 10.5567 8.05815 10.4693 7.7466C10.4506 7.66705 10.3384 7.62728 10.0827 7.60075C9.42797 7.54109 8.85426 7.11025 8.53625 6.44737C8.37412 6.10268 8.35541 5.99663 8.35541 5.43319C8.35541 4.90952 8.38036 4.75706 8.49883 4.52505C8.69213 4.13395 8.979 3.80251 9.26584 3.63017C9.3968 3.55062 9.50902 3.43793 9.50902 3.38491C9.50902 3.23909 9.2783 2.31769 9.23464 2.26466C9.20972 2.24478 8.81063 2.32432 8.3367 2.44364C7.86278 2.55633 7.42627 2.63587 7.36393 2.60935C7.3078 2.58284 7.18309 2.38398 7.08331 2.1586C6.98976 1.93323 6.82139 1.66808 6.70917 1.57528C6.39737 1.29687 5.91099 1.19081 5.51812 1.31676Z" />
<path d="M14.8094 6.62634C14.8094 7.46156 14.8032 7.50131 14.6535 7.6538C14.5538 7.76648 14.4353 7.8195 14.2981 7.8195C13.9801 7.8195 13.556 8.07803 13.344 8.40283C13.1757 8.66134 13.1569 8.74752 13.1569 9.16512C13.1569 9.9871 13.5436 10.4975 14.2357 10.5837C14.772 10.6499 14.8094 10.7427 14.8094 11.9691L14.8094 12.9899L15.4954 12.9899L16.1751 12.9899L16.2437 12.7314C16.3995 12.1215 16.9857 11.4984 17.5719 11.3261C18.6257 11.0079 19.7856 11.6111 20.0911 12.6319L20.1971 12.9899L20.9018 12.9899L21.6064 12.9899L21.6064 11.9028C21.6064 10.8488 21.6127 10.809 21.7436 10.7096C21.8185 10.6499 21.9619 10.6036 22.0616 10.6036C22.2861 10.6036 22.6541 10.4378 22.8411 10.2522C23.1342 9.96721 23.2402 9.62913 23.2153 9.10546C23.1966 8.68786 23.1716 8.59506 23.0032 8.36967C22.7538 8.04487 22.5231 7.90566 22.1053 7.8195C21.9245 7.77973 21.7374 7.72007 21.6875 7.68029C21.6251 7.62063 21.6064 7.37538 21.6064 6.686L21.6064 5.76462L20.8893 5.76462C20.2408 5.76462 20.1722 5.77787 20.1722 5.88391C20.1722 6.12255 19.8417 6.69925 19.5424 6.98428C19.1558 7.35549 18.7255 7.5212 18.1456 7.51459C17.6405 7.51459 17.1042 7.28919 16.7488 6.93789C16.5492 6.73902 16.1813 6.02976 16.1813 5.84414C16.1813 5.78447 16.0005 5.76462 15.4954 5.76462L14.8094 5.76462L14.8094 6.62634Z" />
<path d="M23.4086 7.68694C23.8388 8.14431 23.9948 8.60832 23.9636 9.31098C23.9137 10.3252 23.4023 10.9946 22.4046 11.3526C22.2986 11.3924 22.2924 11.5581 22.2924 13.5798C22.2924 15.3895 22.2799 15.7806 22.2051 15.8601C22.1552 15.9131 21.9744 15.9728 21.806 15.9993C21.3757 16.059 20.9704 16.3507 20.7958 16.7285C20.6835 16.9804 20.6648 17.1196 20.6835 17.4974C20.7023 17.8885 20.7334 17.9879 20.8956 18.2067C21.1388 18.5249 21.4755 18.7303 21.8372 18.7834C21.9993 18.8032 22.1614 18.8563 22.2051 18.8961C22.3236 18.9955 22.3298 21.5409 22.2176 21.6602C22.1614 21.7199 21.7873 21.7398 20.9143 21.7398C19.5299 21.7398 19.5736 21.753 19.4925 21.2227C19.4301 20.8117 19.2743 20.5201 18.9687 20.2549C18.7567 20.076 18.6756 20.0495 18.2828 20.0296C17.8774 20.0097 17.8026 20.0296 17.5158 20.2085C17.2663 20.361 17.1541 20.4869 17.0294 20.7587C16.9421 20.9443 16.8673 21.1962 16.8673 21.3023C16.861 21.7862 16.7612 21.8061 14.5538 21.8061C12.8265 21.8061 12.683 21.8127 12.6519 21.9188C12.5583 22.2767 12.2652 22.7738 12.0221 22.9992C11.492 23.4964 10.5566 23.6952 9.98294 23.4367C9.84577 23.3771 9.73352 23.3373 9.72105 23.3439C9.71481 23.3572 9.87694 23.6488 10.0827 23.9935C10.5504 24.789 11.1989 26.1876 11.4109 26.877C11.7477 27.9774 11.8412 29.1838 11.6604 30.2047C11.5855 30.6421 11.4172 31.0532 10.5691 32.8627C10.0204 34.036 9.57139 35.0169 9.57139 35.0303C9.57139 35.0503 12.1343 35.0634 15.2647 35.0634L20.9642 35.0634L21.0702 34.646C21.3009 33.771 21.7374 33.0416 22.23 32.7103C22.8037 32.3259 23.6643 32.2396 25.1359 32.4054C25.5475 32.4584 26.2147 32.4849 26.6076 32.4649C27.2186 32.4385 27.3745 32.412 27.624 32.2726C28.1727 31.9746 28.3225 31.5635 28.1853 30.7216C28.0853 30.1184 28.1354 29.86 28.4659 29.1838C28.6902 28.7463 28.7152 28.6402 28.7152 28.2226C28.7152 27.6923 28.7715 27.5532 29.0832 27.2681L29.3075 27.056L29.289 26.2539C29.2641 25.1536 29.3826 24.9481 30.0872 24.8221C30.5983 24.736 30.7731 24.5769 30.7731 24.2255C30.7731 24.1394 30.4488 23.3903 30.0497 22.5551C29.1955 20.7654 29.0272 20.2815 29.0272 19.6119C29.0272 19.1877 29.0582 19.0618 29.3013 18.4917C29.6881 17.6035 29.8001 16.9605 29.7567 15.9065C29.6567 13.6461 28.7152 11.5647 26.9879 9.80812C26.277 9.07897 25.4851 8.48239 24.6183 8.02499C24.107 7.75321 23.2215 7.3555 23.1217 7.3555C23.1093 7.3555 23.234 7.50132 23.4086 7.68694Z" />
<path d="M10.17 12.0884C9.69609 12.2806 9.32195 12.8639 9.32195 13.4274C9.32195 13.7257 9.12241 13.7853 8.15586 13.7853L7.26414 13.7853L7.26414 14.7332C7.26414 15.7607 7.20801 15.9728 6.92742 15.9728C6.85258 15.9728 6.64679 16.0192 6.47842 16.0722C5.73015 16.3042 5.35598 17.2654 5.7239 18.0277C5.9172 18.4387 6.22899 18.6773 6.69667 18.7767C6.93988 18.8298 7.12696 18.9093 7.17684 18.9889C7.23918 19.0817 7.26414 19.36 7.26414 20.0627L7.26414 21.0106L8.15586 21.0106C9.20971 21.0106 9.28454 21.0437 9.34688 21.521C9.40301 21.9519 9.6088 22.3231 9.93305 22.5683C10.17 22.7407 10.2573 22.7672 10.619 22.7672C10.9619 22.7672 11.0867 22.7341 11.3299 22.5816C11.6728 22.3695 11.916 21.9784 11.9784 21.5409C12.0532 21.0239 12.0782 21.0106 13.1382 21.0106L14.0611 21.0106L14.0611 20.2483C14.0611 19.5656 14.0487 19.486 13.9551 19.486C13.7119 19.486 13.2068 19.1612 12.9262 18.8298C12.5646 18.3989 12.4086 17.9548 12.4149 17.3317C12.4274 16.3838 12.9761 15.6016 13.8304 15.3099L14.0611 15.2304L14.0611 14.5079L14.0611 13.7853L13.1694 13.7853C12.1156 13.7853 12.0345 13.7522 11.9721 13.2683C11.8786 12.5524 11.4234 12.0751 10.7811 12.0221C10.5504 12.0022 10.3259 12.0287 10.17 12.0884Z" />
<path d="M17.5657 12.1613C17.179 12.3734 16.9483 12.7314 16.8735 13.255C16.8423 13.4406 16.7862 13.6329 16.7488 13.6726C16.6989 13.7257 16.3497 13.7588 15.7136 13.7721L14.7471 13.792L14.7471 14.7797C14.7471 15.9065 14.7409 15.933 14.2607 15.9993C13.581 16.0921 13.1258 16.6423 13.1258 17.3715C13.132 18.094 13.5311 18.6243 14.1671 18.7502C14.7471 18.8696 14.7159 18.8033 14.7346 19.9766L14.7533 21.0106L15.458 21.0106L16.1626 21.0106L16.2374 20.7322C16.4495 19.9832 17.0169 19.4529 17.7902 19.2805C18.1643 19.201 18.4761 19.2341 18.9562 19.3998C19.4114 19.5589 19.9353 20.129 20.0849 20.6328L20.1972 21.0106L20.9018 21.0106L21.6127 21.0106L21.594 20.2748L21.5753 19.5457L21.251 19.4264C19.9166 18.9491 19.4863 17.0533 20.4591 15.9065C20.6898 15.6348 21.1076 15.3696 21.4381 15.2834L21.6064 15.2437L21.6064 14.5145L21.6064 13.7854L20.7023 13.7854C19.8168 13.7854 19.7856 13.7787 19.6422 13.6196C19.5362 13.5136 19.4863 13.3876 19.4863 13.2418C19.4863 13.1158 19.4239 12.8838 19.3491 12.7248C19.0311 12.0552 18.2267 11.8034 17.5657 12.1613Z" />
</g>
</svg>
